<svg width="26" height="35" viewBox="0 0 26 35" fill="none" xmlns="http://www.w3.org/2000/svg">
  <path d="M25.7273 13.0088C25.7273 22.6106 13 35 13 35C13 35 0.27272 22.6106 0.27272 13.0088C0.27272 5.82426 5.97091 0 13 0C20.0291 0 25.7273 5.82426 25.7273 13.0088Z" fill="#EB0028" />
  <path transform="translate(4, 2)" d="M10.707 2.293a1 1 0 00-1.414 0l-7 7a1 1 0 001.414 1.414L4 10.414V17a1 1 0 001 1h2a1 1 0 001-1v-2a1 1 0 011-1h2a1 1 0 011 1v2a1 1 0 001 1h2a1 1 0 001-1v-6.586l.293.293a1 1 0 001.414-1.414l-7-7z" fill="#213871" />
</svg>